<?xml version="1.0" encoding="UTF-8"?>
<svg width="22px" height="22px" viewBox="0 0 22 22" version="1.1" xmlns="http://www.w3.org/2000/svg" xmlns:xlink="http://www.w3.org/1999/xlink">
    <!-- Generator: Sketch 64 (93537) - https://sketch.com -->
    <title>Icon/?</title>
    <desc>Created with Sketch.</desc>
    <g id="Icon/?" stroke="none" stroke-width="1" fill="none" fill-rule="evenodd">
        <circle id="Oval" fill="#000000" cx="11" cy="11" r="11"></circle>
        <path d="M11.2,14.32 C11.3,12.96 11.72,12.42 12.78,11.76 C14.4,10.74 15.44,9.84 15.44,7.86 C15.44,5.68 13.82,4.14 11.14,4.14 C9.18,4.14 7.84,5 6.58,6.34 L7.8,7.42 C8.78,6.4 9.78,5.74 11.06,5.74 C12.58,5.74 13.48,6.62 13.48,7.94 C13.48,9.16 12.96,9.82 11.78,10.56 C10.22,11.56 9.76,12.4 9.82,14.32 L11.2,14.32 Z M11.62,18 L11.62,15.92 L9.4,15.92 L9.4,18 L11.62,18 Z" id="?" fill="#FFFFFF" fill-rule="nonzero"></path>
    </g>
</svg>